<?xml version="1.0" standalone="no"?>
<!DOCTYPE svg PUBLIC "-//W3C//DTD SVG 20010904//EN"
 "http://www.w3.org/TR/2001/REC-SVG-20010904/DTD/svg10.dtd">
<svg version="1.0" xmlns="http://www.w3.org/2000/svg"
 width="500.000000pt" height="500.000000pt" viewBox="0 0 500.000000 500.000000"
 preserveAspectRatio="xMidYMid meet">

<g transform="translate(0.000000,500.000000) scale(0.100000,-0.100000)"
fill="#000000" stroke="none">
<path d="M2544 2949 c-289 -34 -494 -263 -494 -554 0 -275 185 -485 478 -541
137 -26 267 -12 370 40 l47 24 30 -24 c30 -24 112 -54 148 -54 18 0 19 7 15
158 -4 177 -15 215 -86 287 -63 64 -109 79 -256 83 -92 3 -127 1 -122 -7 5 -7
42 -11 97 -11 l89 0 0 -139 c0 -146 10 -194 51 -252 l21 -29 -36 -15 c-245
-103 -466 40 -523 336 -18 99 -13 292 11 378 35 127 102 218 194 262 66 32
195 32 267 0 107 -48 193 -149 229 -269 11 -34 22 -62 27 -62 13 0 -11 84 -43
150 -86 176 -280 266 -514 239z"/>
<path d="M1310 2418 c-271 -596 -263 -578 -252 -578 5 0 53 100 108 221 107
239 128 269 204 289 50 14 107 0 150 -36 19 -16 53 -73 90 -150 48 -99 71
-135 118 -181 64 -64 135 -104 227 -127 81 -22 108 -21 101 2 -10 29 -496
1056 -505 1065 -4 4 -113 -223 -241 -505z"/>
<path d="M3240 2508 c0 -459 2 -481 63 -559 17 -23 57 -56 87 -73 l55 -31 248
-3 c174 -2 247 0 242 7 -4 7 -77 11 -211 11 l-204 0 0 420 c0 456 1 449 -57
532 -36 52 -110 97 -172 105 l-51 6 0 -415z"/>
</g>
</svg>
